<?xml version="1.0" encoding="UTF-8" standalone="no"?>
<!-- Generator: Adobe Illustrator 23.0.0, SVG Export Plug-In . SVG Version: 6.00 Build 0)  -->

<svg
   xmlns:dc="http://purl.org/dc/elements/1.1/"
   xmlns:cc="http://creativecommons.org/ns#"
   xmlns:rdf="http://www.w3.org/1999/02/22-rdf-syntax-ns#"
   xmlns:svg="http://www.w3.org/2000/svg"
   xmlns="http://www.w3.org/2000/svg"
   xmlns:sodipodi="http://sodipodi.sourceforge.net/DTD/sodipodi-0.dtd"
   xmlns:inkscape="http://www.inkscape.org/namespaces/inkscape"
   version="1.1"
   id="Layer_1"
   x="0px"
   y="0px"
   viewBox="0 0 45.009998 17.879999"
   xml:space="preserve"
   sodipodi:docname="jacht_ikon.svg"
   width="45.009998"
   height="17.879999"
   inkscape:version="0.92.3 (2405546, 2018-03-11)"><metadata
   id="metadata27"><rdf:RDF><cc:Work
       rdf:about=""><dc:format>image/svg+xml</dc:format><dc:type
         rdf:resource="http://purl.org/dc/dcmitype/StillImage" /><dc:title></dc:title></cc:Work></rdf:RDF></metadata><defs
   id="defs25" /><sodipodi:namedview
   pagecolor="#ffffff"
   bordercolor="#666666"
   borderopacity="1"
   objecttolerance="10"
   gridtolerance="10"
   guidetolerance="10"
   inkscape:pageopacity="0"
   inkscape:pageshadow="2"
   inkscape:window-width="1533"
   inkscape:window-height="845"
   id="namedview23"
   showgrid="false"
   inkscape:zoom="1.2301887"
   inkscape:cx="-51.1"
   inkscape:cy="-59.13"
   inkscape:window-x="67"
   inkscape:window-y="27"
   inkscape:window-maximized="1"
   inkscape:current-layer="Layer_1"
   fit-margin-top="0"
   fit-margin-left="0"
   fit-margin-right="0"
   fit-margin-bottom="0" />
<style
   type="text/css"
   id="style2">
	.st0{fill:#F15A24;}
	.st1{fill:#1F2356;}
	.st2{fill:none;stroke:#F15A24;stroke-width:4;stroke-linecap:round;stroke-linejoin:round;stroke-miterlimit:10;}
	.st3{fill:none;stroke:#1F2356;stroke-width:4;stroke-linecap:round;stroke-miterlimit:10;}
</style>
<g
   id="g10"
   transform="translate(-148.63,-41.310001)">
	<path
   class="st0"
   d="M 189.16,52.98 V 52.8 L 187.94,46.25 187.72,46 h 0.21 l -0.62,-0.67 H 172 l 0.67,0.67 h 1.55 0.05 v 0.26 l -0.24,0.2 -6.58,5.44 v 0 l -1.1,0.91 h 0.07 l -0.18,0.13 c -0.18,-0.15 -0.39,-0.47 -0.54,-0.48 -5.33,-0.43 -10.51,-1.07 -17.07,-1.86 0.16,2.84 8.96,5.98 8.78,6.97 l -0.11,0.41 1.11,1.21 h 29.64 c -0.06,-0.41 -0.04,-0.81 0.08,-1.21 l 0.12,-0.41 h 0.14 c 2.36,-1.22 4.08,-2.87 5.25,-4.9 v -1.03 c -1.11,0.47 -2.61,1.07 -4.48,1.34 z"
   id="path4"
   inkscape:connector-curvature="0"
   style="fill:#f15a24" />
	<rect
   x="182.66"
   y="41.310001"
   class="st0"
   width="0.89999998"
   height="5.1999998"
   id="rect6"
   style="fill:#f15a24" />
	<rect
   x="176.17999"
   y="44.439999"
   class="st0"
   width="0.44"
   height="1.33"
   id="rect8"
   style="fill:#f15a24" />
</g>





</svg>