<?xml version="1.0" encoding="UTF-8" standalone="no"?>
<!-- Generator: Adobe Illustrator 23.0.0, SVG Export Plug-In . SVG Version: 6.00 Build 0)  -->

<svg
   xmlns:dc="http://purl.org/dc/elements/1.1/"
   xmlns:cc="http://creativecommons.org/ns#"
   xmlns:rdf="http://www.w3.org/1999/02/22-rdf-syntax-ns#"
   xmlns:svg="http://www.w3.org/2000/svg"
   xmlns="http://www.w3.org/2000/svg"
   xmlns:sodipodi="http://sodipodi.sourceforge.net/DTD/sodipodi-0.dtd"
   xmlns:inkscape="http://www.inkscape.org/namespaces/inkscape"
   version="1.1"
   id="Layer_1"
   x="0px"
   y="0px"
   viewBox="0 0 364.81625 168.66"
   xml:space="preserve"
   sodipodi:docname="jacht.svg"
   width="364.81625"
   height="168.66"
   inkscape:version="0.92.3 (2405546, 2018-03-11)"><metadata
   id="metadata89"><rdf:RDF><cc:Work
       rdf:about=""><dc:format>image/svg+xml</dc:format><dc:type
         rdf:resource="http://purl.org/dc/dcmitype/StillImage" /><dc:title></dc:title></cc:Work></rdf:RDF></metadata><defs
   id="defs87" /><sodipodi:namedview
   pagecolor="#ffffff"
   bordercolor="#666666"
   borderopacity="1"
   objecttolerance="10"
   gridtolerance="10"
   guidetolerance="10"
   inkscape:pageopacity="0"
   inkscape:pageshadow="2"
   inkscape:window-width="1533"
   inkscape:window-height="845"
   id="namedview85"
   showgrid="false"
   fit-margin-top="0"
   fit-margin-left="0"
   fit-margin-right="0"
   fit-margin-bottom="0"
   inkscape:zoom="0.23046875"
   inkscape:cx="200.2596"
   inkscape:cy="48.63"
   inkscape:window-x="67"
   inkscape:window-y="27"
   inkscape:window-maximized="1"
   inkscape:current-layer="Layer_1" />
<style
   type="text/css"
   id="style2">
	.st0{fill:#999999;}
	.st1{fill:#666666;}
	.st2{fill:#CCCCCC;}
	.st3{fill:#333333;}
</style>
<g
   id="g82"
   transform="translate(-439.7404,-391.97)">
	<path
   class="st0"
   d="m 441.78,521.34 c 14.58,1.79 95.58,-3.74 117.21,-6.41 24.06,-2.97 85.05,-13.73 85.05,-13.73 0,0 24.48,-4.1 29.15,-4.67 4.67,-0.57 11.46,-1.98 15.42,-1.27 3.96,0.71 9.62,4.25 18.68,2.97 9.06,-1.27 46.27,-9.34 48.82,-11.18 2.55,-1.84 7.08,-7.08 9.91,-7.92 2.83,-0.85 24.2,-5.09 24.62,-5.24 0.42,-0.14 1.84,-1.27 2.69,0 0.85,1.27 0.85,1.27 0.85,1.27 0,0 3.25,1.32 5.8,6.74 2.55,5.42 2.41,6.56 2.41,6.56 0,0 1.56,0 1.98,0.71 0.42,0.71 0,2.97 0,2.97 l -1.84,3.82 c 0,0 -45.52,21.98 -110.35,38.87 -64.83,16.89 -172.82,25.8 -172.82,25.8 0,0 -27.17,-16.21 -36.53,-21 -9.36,-4.79 -35.84,-15.98 -35.84,-15.98 z"
   id="path4"
   inkscape:connector-curvature="0"
   style="fill:#999999" />
	<path
   class="st1"
   d="m 519.35,560.63 c 0,0 107.98,-8.9 172.82,-25.8 64.84,-16.89 110.35,-38.87 110.35,-38.87 l 1.83,-3.81 c -24.75,7.1 -123.62,35.32 -163.53,44.15 -45.79,10.14 -123.62,17.19 -123.62,17.19 0,0 -13.21,-8.33 -18.28,-10.32 -2.87,-1.13 -6.72,-0.63 -9.53,0.01 11.75,6.59 29.96,17.45 29.96,17.45 z"
   id="path6"
   inkscape:connector-curvature="0"
   style="fill:#666666" />
	<path
   class="st0"
   d="m 590.77,471.25 c 0,0 -37.1,5.24 -43.28,9.39 -6.18,4.15 -9.51,1.72 -9.27,4.15 0.24,2.43 7.92,8.04 7.92,8.04 h 29.87 l 42.55,-8.04 16.09,-5.05 -9.02,-3 z"
   id="path8"
   inkscape:connector-curvature="0"
   style="fill:#999999" />
	<path
   class="st2"
   d="m 541.31,484.79 c 5.73,-2.08 28.65,-10.03 48.75,-11.5 0.11,-4.43 0,-7.52 0,-7.52 0,0 -39.48,7.57 -53.59,14.67 0.7,1.42 2.4,2.91 4.84,4.35 z"
   id="path10"
   inkscape:connector-curvature="0"
   style="fill:#cccccc" />
	<path
   class="st2"
   d="m 536.47,480.44 c 0,0 -14.34,7.21 -15.25,7.67 -0.91,0.45 -1.25,1.93 0,3.3 1.25,1.37 23.32,13.88 44.48,12.06 21.16,-1.82 70.53,-10.56 74.39,-11.31 3.87,-0.75 12.85,-1.52 19.57,-0.11 6.71,1.41 16.49,6.05 21.39,5.44 4.89,-0.61 9.27,-1.21 8.96,-2.65 -0.31,-1.44 -3.62,-3.19 -5.31,-5.12 -1.69,-1.94 -3.31,-4.5 0.44,-5.12 3.75,-0.62 39.78,-7.62 43.34,-8.37 3.56,-0.75 14.47,-3.71 20.84,-2.93 6.37,0.78 14.1,4.52 16.63,4.88 2.53,0.36 7.24,-0.05 7.69,-0.76 0.45,-0.71 -0.07,-1.36 -1.39,-2.54 -1.32,-1.17 -6.3,-6.08 -2.42,-6.89 3.88,-0.81 20.14,-3.96 20.8,-4.47 0.66,-0.51 -1.39,-2.86 -4.32,-4.1 -2.93,-1.25 -7.62,-3.59 -7.62,-3.59 0,0 0.77,1.12 -1.36,1.32 -2.13,0.2 -17.25,1.22 -17.25,1.22 0,0 -0.3,1.93 -4.87,3.04 -4.57,1.11 -12.48,2.03 -12.48,2.03 l 0.1,-1.72 -9.03,0.71 -0.1,2.13 c 0,0 -10.04,6.8 -26.68,8.32 -16.64,1.52 -19.07,-1.32 -24.15,-5.28 -1.93,0 -13.09,0.1 -16.54,0.1 -3.45,0 -34.5,6.29 -34.5,6.29 l -2.45,1.41 0.22,3.26 c 0,0 -35.31,9.03 -43.63,10.96 -8.32,1.93 -14.31,4.46 -26.18,1.83 -11.86,-2.64 -21.39,-7.09 -23.32,-11.01 z"
   id="path12"
   inkscape:connector-curvature="0"
   style="fill:#cccccc" />
	<path
   class="st2"
   d="m 629.61,478.66 -0.2,-3.04 2.45,-1.62 c -32.31,-1.37 -41.79,-8.22 -41.79,-8.22 v 7.52 c 19.28,6.37 39.54,5.36 39.54,5.36 z"
   id="path14"
   inkscape:connector-curvature="0"
   style="fill:#cccccc" />
	<path
   class="st0"
   d="m 642.45,444 c 22.33,2.69 49.46,1.85 51.93,1.23 8.45,-11.44 22.09,-20.42 22.09,-20.42 l 8.71,-1.14 -0.35,-0.88 -11.71,0.88 c 0,0 -28.43,2.38 -32.74,2.73 -1.6,0.13 -7.22,-0.26 -13.66,-0.8 -3.9,1.92 -11.94,6.4 -17.73,13.01 -1.2,0.3 -18.58,-0.18 -26.46,1.3 0,0 0.9,0.39 1.69,0.92 0.81,0.53 5.74,2.29 18.23,3.17 z"
   id="path16"
   inkscape:connector-curvature="0"
   style="fill:#999999" />
	<path
   class="st3"
   d="m 527.31,506.13 c 11.9,5.65 40.49,6.12 40.49,6.12 v 1.49 c -1.29,0.19 -2.53,0.36 -3.72,0.52 v 0 c 26.58,-3.65 79.95,-13.06 79.95,-13.06 0,0 24.48,-4.1 29.15,-4.67 0.08,-0.01 0.17,-0.02 0.25,-0.03 l -0.11,-0.27 c -4.52,-1.34 -9.64,-3.34 -13.67,-4.19 -6.71,-1.41 -15.7,-0.64 -19.57,0.11 -3.87,0.75 -53.24,9.49 -74.39,11.31 -19.09,1.64 -38.92,-8.38 -43.53,-11.36 l -4.3,5.4 c -0.2,0.33 -1.78,3.3 9.45,8.63 z"
   id="path18"
   inkscape:connector-curvature="0"
   style="fill:#333333" />
	<path
   class="st2"
   d="m 707.29,498.23 c 9.06,-1.27 46.27,-9.34 48.82,-11.18 1.3,-0.94 3.11,-2.76 4.96,-4.43 l -64.87,14.91 c 3.01,0.79 6.64,1.33 11.09,0.7 z"
   id="path20"
   inkscape:connector-curvature="0"
   style="fill:#cccccc" />
	<g
   id="g28">
		<path
   class="st3"
   d="m 765.94,478.17 c -2.53,-0.36 -10.26,-4.1 -16.63,-4.88 -6.37,-0.78 -17.28,2.18 -20.84,2.93 -3.56,0.75 -39.6,7.74 -43.34,8.37 -3.75,0.62 -2.12,3.19 -0.44,5.12 1.69,1.94 5,3.68 5.31,5.12 0.06,0.25 -0.05,0.48 -0.27,0.69 1.79,0.48 3.92,1.33 6.49,2 l 64.85,-14.9 c -0.02,0.02 -0.04,0.04 -0.06,0.05 1.79,-1.63 3.61,-3.13 5.01,-3.55 0.34,-0.1 0.94,-0.25 1.73,-0.43 l 0.15,-0.4 c -0.71,0 -1.39,-0.04 -1.96,-0.12 z"
   id="path22"
   inkscape:connector-curvature="0"
   style="fill:#333333" />
		<path
   class="st3"
   d="m 700.49,498.33 c 0.01,0 0.03,0 0.04,0.01 v 0 c -0.01,-0.01 -0.02,-0.01 -0.04,-0.01 z"
   id="path24"
   inkscape:connector-curvature="0"
   style="fill:#333333" />
		<path
   class="st3"
   d="m 760.5,483.13 c -0.09,0.08 -0.17,0.16 -0.26,0.24 0.09,-0.08 0.18,-0.16 0.26,-0.24 z"
   id="path26"
   inkscape:connector-curvature="0"
   style="fill:#333333" />
	</g>
	<path
   class="st0"
   d="m 790.75,472.04 c -1.67,-0.38 -14.68,-3.09 -20.11,-4.22 -0.31,0.06 -0.59,0.12 -0.82,0.17 -3.88,0.81 1.1,5.71 2.42,6.89 1.32,1.17 1.83,1.83 1.39,2.54 0,0 0,0 0,0 7.19,-1.52 16.73,-3.42 17.01,-3.52 0.33,-0.11 1.25,-0.81 2.04,-0.53 -0.26,-0.49 -0.79,-1.07 -1.93,-1.33 z"
   id="path30"
   inkscape:connector-curvature="0"
   style="fill:#999999" />
	<path
   class="st3"
   d="m 746.05,460.81 c 0.33,0.71 -1.21,1.52 -3.28,1.99 l -0.04,0.64 c 0,0 7.91,-0.91 12.48,-2.03 0.62,-0.15 1.16,-0.32 1.64,-0.5 v -12.98 l -19.25,3.46 c 0,0 -0.53,1.32 -0.53,2.73 0,1.41 8.45,5.54 8.98,6.69 z"
   id="path32"
   inkscape:connector-curvature="0"
   style="fill:#333333" />
	<g
   id="g40">
		<path
   class="st1"
   d="m 756.24,461.12 c -0.01,0 -0.02,0.01 -0.04,0.01 0.02,0 0.03,-0.01 0.04,-0.01 z"
   id="path34"
   inkscape:connector-curvature="0"
   style="fill:#666666" />
		<path
   class="st1"
   d="m 755.44,461.35 v 0 c 0.03,-0.01 0.05,-0.02 0.08,-0.02 -0.02,0 -0.05,0.01 -0.08,0.02 z"
   id="path36"
   inkscape:connector-curvature="0"
   style="fill:#666666" />
		<path
   class="st0"
   d="m 778.73,455.9 -21.88,-5.17 v 10.18 c 3,-1.11 3.23,-2.54 3.23,-2.54 0,0 15.12,-1.01 17.25,-1.22 1.8,-0.17 1.53,-1 1.4,-1.25 z"
   id="path38"
   inkscape:connector-curvature="0"
   style="fill:#999999" />
	</g>
	<path
   class="st2"
   d="m 776.33,440.39 c -2.73,-0.97 -6.87,-2.64 -6.87,-2.64 h -3.78 c 0,0 -0.97,1.94 -3.87,2.82 -2.9,0.88 -12.85,2.11 -19.8,2.73 -6.95,0.62 -12.85,1.06 -14.96,0.62 -2.11,-0.44 -3.26,-3.7 -4.14,-3.78 -0.88,-0.09 -2.46,-0.26 -2.46,-0.26 l 4.14,-12.32 22.97,-2.02 c 0,0 1.14,-0.62 1.41,-0.7 0.26,-0.09 2.02,0 1.67,-0.7 -0.35,-0.7 -36.35,-8.36 -40.93,-8.63 -4.58,-0.26 -19.72,0.09 -24.47,0.44 -4.75,0.35 -34.85,3.08 -38.11,4.05 -3.26,0.97 -5.02,1.76 -5.19,2.29 -0.18,0.53 0.62,1.06 0.62,1.06 0,0 33.53,3.43 37.85,3.08 1.24,-0.1 4.48,-0.37 8.45,-0.7 l 10.67,13.46 c -1.81,1.91 -3.56,3.95 -5.13,6.08 -2.46,0.62 -29.6,1.45 -51.93,-1.23 -12.5,-0.88 -17.43,-2.64 -18.22,-3.17 -0.79,-0.53 -1.69,-0.92 -1.69,-0.92 0,0 -4.61,2.54 -8.53,5.42 -5.31,2.08 -15.34,6.12 -20.53,10.5 1.04,1.96 20.53,12.91 59.51,8.07 38.98,-4.84 56.17,-7.84 57.67,-8.07 1.5,-0.23 10.22,0.4 16.11,3.57 5.9,3.17 8.27,3.61 11.88,3.78 3.61,0.18 7.92,-1.23 7.39,-2.38 -0.53,-1.14 -8.98,-5.28 -8.98,-6.69 0,-1.41 0.53,-2.73 0.53,-2.73 l 20.6,-3.7 c 0,0 20.24,-3.34 21.04,-3.87 0.77,-0.56 -0.2,-2.49 -2.92,-3.46 z m -75.87,-2.23 -10.11,-12.59 c 9.76,-0.81 22.78,-1.9 22.78,-1.9 l 11.71,-0.88 0.35,0.88 -8.71,1.14 c 0,0 -8.34,5.49 -16.02,13.35 z"
   id="path42"
   inkscape:connector-curvature="0"
   style="fill:#cccccc" />
	<g
   id="g48">
		<path
   class="st3"
   d="m 666.33,467.7 c 3.45,0 14.61,-0.1 16.54,-0.1 5.07,3.96 7.51,6.8 24.15,5.28 16.64,-1.52 26.68,-8.32 26.68,-8.32 l 0.1,-2.08 c -1.83,-0.52 -3.95,-1.43 -7.03,-3.08 -5.9,-3.17 -14.61,-3.81 -16.11,-3.57 -1.5,0.23 -18.68,3.23 -57.67,8.07 -35.2,4.37 -54.5,-4.13 -58.68,-7.27 v 0 l -4.24,9.14 c 0,0 9.47,6.85 41.78,8.22 -0.01,0 31.03,-6.29 34.48,-6.29 z"
   id="path44"
   inkscape:connector-curvature="0"
   style="fill:#333333" />
		<line
   class="st3"
   x1="631.83002"
   y1="474"
   x2="631.84003"
   y2="473.98999"
   id="line46"
   style="fill:#333333" />
	</g>
	<path
   class="st0"
   d="m 720.44,439.86 c 0,0 1.58,0.18 2.46,0.26 0.88,0.09 2.02,3.34 4.14,3.78 2.11,0.44 8.01,0 14.96,-0.62 6.95,-0.62 16.9,-1.85 19.8,-2.73 2.9,-0.88 3.87,-2.82 3.87,-2.82 l -41.83,-8.04 z"
   id="path50"
   inkscape:connector-curvature="0"
   style="fill:#999999" />
	<g
   id="g64">
		<polygon
   class="st1"
   points="722.89,409.73 726.93,409.4 726.93,407.91 730.7,406.21 717.62,405.24 716.77,409.86 714.1,418.06 714.75,419.04 722.11,418.65 "
   id="polygon52"
   style="fill:#666666" />
		<path
   class="st1"
   d="m 730.57,399.18 c 0,-3.34 -2.71,-6.06 -6.06,-6.06 -3.24,0 -5.88,2.55 -6.04,5.75 h -0.01 l -0.86,6.36 13.09,0.98 z"
   id="path54"
   inkscape:connector-curvature="0"
   style="fill:#666666" />
		<path
   class="st1"
   d="m 694.25,397.49 c 0,-3.05 -2.47,-5.52 -5.52,-5.52 -3.05,0 -5.52,2.47 -5.52,5.52 l -0.68,6.62 12.05,-0.43 z"
   id="path56"
   inkscape:connector-curvature="0"
   style="fill:#666666" />
		<path
   class="st1"
   d="m 683.68,416.04 7.25,-11.18 -8.39,-0.75 12.05,-0.43 h 2.87 l -0.23,0.96 c 0,0 -1.86,0.84 -2.65,2.48 -0.79,1.64 -2.59,8.93 -2.59,8.93 l -8.44,0.59 z"
   id="path58"
   inkscape:connector-curvature="0"
   style="fill:#666666" />
		<polygon
   class="st1"
   points="709.37,405.24 696.25,405.24 697.46,403.69 709.37,403.69 "
   id="polygon60"
   style="fill:#666666" />
		<polygon
   class="st1"
   points="709.37,405.24 718.72,406.54 718.3,404.46 709.37,403.69 "
   id="polygon62"
   style="fill:#666666" />
	</g>
	<g
   id="g78">
		<ellipse
   class="st1"
   cx="552.09003"
   cy="536.48999"
   rx="2.7"
   ry="1.75"
   id="ellipse66"
   style="fill:#666666" />
		
			<ellipse
   transform="rotate(-7.7354906,571.57943,534.29772)"
   class="st1"
   cx="571.65002"
   cy="534.35999"
   rx="2.5599999"
   ry="1.66"
   id="ellipse68"
   style="fill:#666666" />
		
			<ellipse
   transform="matrix(0.9049,-0.4257,0.4257,0.9049,-169.7693,304.1439)"
   class="st1"
   cx="595.57001"
   cy="531.89001"
   rx="2.6900001"
   ry="1.91"
   id="ellipse70"
   style="fill:#666666" />
		
			<ellipse
   transform="matrix(0.9049,-0.4257,0.4257,0.9049,-166.5886,312.5123)"
   class="st1"
   cx="615.88"
   cy="528.96002"
   rx="2.6900001"
   ry="1.91"
   id="ellipse72"
   style="fill:#666666" />
		
			<ellipse
   transform="matrix(0.7481,-0.6636,0.6636,0.7481,-191.7181,549.5624)"
   class="st1"
   cx="627.96002"
   cy="527.28998"
   rx="2.6900001"
   ry="2"
   id="ellipse74"
   style="fill:#666666" />
		
			<ellipse
   transform="matrix(0.4372,-0.8994,0.8994,0.4372,-113.9386,869.611)"
   class="st1"
   cx="637.82001"
   cy="525.84003"
   rx="2.6900001"
   ry="2"
   id="ellipse76"
   style="fill:#666666" />
	</g>
	<path
   class="st2"
   d="m 558.99,514.93 c 2.56,-0.32 5.54,-0.72 8.82,-1.19 v -1.49 c 0,0 -28.59,-0.47 -40.49,-6.12 -11.9,-5.65 -9.42,-8.65 -9.42,-8.65 0,0 -72.45,10.94 -78.11,22.2 -0.27,0.53 0.58,1.1 2.12,1.67 14.87,1.75 95.51,-3.76 117.08,-6.42 z"
   id="path80"
   inkscape:connector-curvature="0"
   style="fill:#cccccc" />
</g>
</svg>