<?xml version="1.0" encoding="UTF-8" standalone="no"?>
<!-- Generator: Adobe Illustrator 23.0.0, SVG Export Plug-In . SVG Version: 6.00 Build 0)  -->

<svg
   xmlns:dc="http://purl.org/dc/elements/1.1/"
   xmlns:cc="http://creativecommons.org/ns#"
   xmlns:rdf="http://www.w3.org/1999/02/22-rdf-syntax-ns#"
   xmlns:svg="http://www.w3.org/2000/svg"
   xmlns="http://www.w3.org/2000/svg"
   xmlns:sodipodi="http://sodipodi.sourceforge.net/DTD/sodipodi-0.dtd"
   xmlns:inkscape="http://www.inkscape.org/namespaces/inkscape"
   version="1.1"
   id="Layer_1"
   x="0px"
   y="0px"
   viewBox="0 0 786.71997 111.00005"
   xml:space="preserve"
   sodipodi:docname="nertravel_fej.svg"
   width="786.71997"
   height="111.00005"
   inkscape:version="0.92.3 (2405546, 2018-03-11)"><metadata
   id="metadata73"><rdf:RDF><cc:Work
       rdf:about=""><dc:format>image/svg+xml</dc:format><dc:type
         rdf:resource="http://purl.org/dc/dcmitype/StillImage" /><dc:title></dc:title></cc:Work></rdf:RDF></metadata><defs
   id="defs71" /><sodipodi:namedview
   pagecolor="#ffffff"
   bordercolor="#666666"
   borderopacity="1"
   objecttolerance="10"
   gridtolerance="10"
   guidetolerance="10"
   inkscape:pageopacity="0"
   inkscape:pageshadow="2"
   inkscape:window-width="1533"
   inkscape:window-height="845"
   id="namedview69"
   showgrid="false"
   fit-margin-top="0"
   fit-margin-left="0"
   fit-margin-right="0"
   fit-margin-bottom="0"
   inkscape:zoom="0.23046875"
   inkscape:cx="393.71"
   inkscape:cy="55.24"
   inkscape:window-x="67"
   inkscape:window-y="27"
   inkscape:window-maximized="1"
   inkscape:current-layer="Layer_1" />
<style
   type="text/css"
   id="style2">
	.st0{fill:#FFFFFF;}
</style>
<g
   id="g66"
   transform="translate(-246.29,-456.23995)">
	<g
   id="g16">
		<path
   d="m 649.92,477.59 h -19.18 v -19.5 h 59.63 v 19.5 h -19.34 v 89.12 h -21.11 z"
   id="path4"
   inkscape:connector-curvature="0" />
		<path
   d="m 701.49,459.7 c 6.61,-1.29 14.99,-2.09 23.05,-2.09 11.6,0 21.92,1.61 29.01,8.06 6.61,5.96 8.54,13.22 8.54,22.56 0,11.6 -5.64,22.08 -16.76,27.24 v 0.32 c 7.41,2.9 11.12,9.83 13.22,21.43 2.09,12.09 5,25.46 6.93,29.49 H 743.4 c -1.29,-3.06 -3.71,-14.02 -5.32,-25.95 -1.93,-13.54 -5.32,-17.41 -12.41,-17.41 h -3.06 V 566.7 H 701.5 v -107 z m 21.12,47.38 h 3.71 c 9.19,0 14.5,-7.41 14.5,-16.92 0,-9.19 -3.71,-15.79 -13.21,-16.12 -1.77,0 -3.87,0.16 -5,0.64 z"
   id="path6"
   inkscape:connector-curvature="0" />
		<path
   d="m 794.48,541.89 -4.83,24.82 h -20.47 l 23.53,-108.62 h 25.3 l 21.11,108.62 h -20.47 l -4.67,-24.82 z m 17.57,-16.44 -3.55,-22.72 c -1.13,-6.61 -2.58,-17.41 -3.55,-24.66 h -0.48 c -1.13,7.25 -2.74,18.53 -3.87,24.82 l -4.03,22.56 z"
   id="path8"
   inkscape:connector-curvature="0" />
		<path
   d="M 862.82,566.71 838.48,458.09 h 23.37 l 7.74,46.9 c 1.93,11.6 4.19,24.98 5.64,37.71 h 0.32 c 1.45,-12.89 3.22,-25.95 5.16,-38.2 l 7.41,-46.42 h 23.21 L 886.51,566.7 h -23.69 z"
   id="path10"
   inkscape:connector-curvature="0" />
		<path
   d="m 966.45,519.01 h -24.82 v 29.33 h 28.04 v 18.37 H 920.52 V 458.09 h 47.22 v 18.37 h -26.11 v 24.98 h 24.82 z"
   id="path12"
   inkscape:connector-curvature="0" />
		<path
   d="m 984.02,458.09 h 21.11 v 90.74 h 27.88 v 17.89 h -48.99 z"
   id="path14"
   inkscape:connector-curvature="0" />
	</g>
	<g
   id="g24">
		<path
   d="M 246.29,566.71 V 458.09 h 19.34 l 16.76,42.55 c 3.22,8.38 8.54,22.4 11.6,31.75 h 0.32 c -0.64,-11.44 -2.1,-30.3 -2.1,-50.28 V 458.1 h 18.53 V 566.72 H 291.4 l -16.6,-41.26 c -3.55,-9.19 -8.54,-22.89 -10.96,-32.72 h -0.32 c 0.48,10.96 1.29,27.72 1.29,49.48 v 24.5 h -18.52 z"
   id="path18"
   inkscape:connector-curvature="0" />
		<path
   d="m 375.38,519.01 h -24.82 v 29.33 h 28.04 v 18.37 H 329.45 V 458.09 h 47.22 v 18.37 h -26.11 v 24.98 h 24.82 z"
   id="path20"
   inkscape:connector-curvature="0" />
		<path
   d="m 392.95,459.7 c 6.61,-1.29 14.99,-2.1 23.05,-2.1 11.6,0 21.92,1.61 29.01,8.06 6.61,5.96 8.54,13.22 8.54,22.56 0,11.6 -5.64,22.08 -16.76,27.24 v 0.32 c 7.41,2.9 11.12,9.83 13.22,21.44 2.1,12.09 5,25.46 6.93,29.49 h -22.08 c -1.29,-3.06 -3.71,-14.02 -5.32,-25.95 -1.93,-13.54 -5.32,-17.41 -12.41,-17.41 h -3.06 v 43.35 h -21.11 v -107 z m 21.11,47.38 h 3.71 c 9.19,0 14.5,-7.41 14.5,-16.92 0,-9.19 -3.71,-15.79 -13.22,-16.12 -1.77,0 -3.87,0.16 -5,0.64 v 32.4 z"
   id="path22"
   inkscape:connector-curvature="0" />
	</g>
	<g
   id="g64">
		<g
   id="g44">
			<path
   d="m 530.94,460.3 c -6.89,2.79 -13.06,6.9 -18.36,12.19 -5.3,5.3 -9.4,11.48 -12.19,18.36 -2.7,6.65 -4.06,13.68 -4.06,20.89 0,7.21 1.37,14.24 4.06,20.89 2.79,6.89 6.9,13.07 12.19,18.36 5.3,5.3 11.48,9.4 18.36,12.19 6.65,2.7 13.68,4.06 20.89,4.06 7.21,0 14.23,-1.37 20.89,-4.06 6.89,-2.79 13.07,-6.89 18.36,-12.19 5.3,-5.3 9.4,-11.47 12.19,-18.36 2.7,-6.65 4.06,-13.68 4.06,-20.89 0,-7.21 -1.37,-14.24 -4.06,-20.89 -2.79,-6.88 -6.9,-13.07 -12.19,-18.36 -5.3,-5.3 -11.47,-9.4 -18.36,-12.19 -6.65,-2.7 -13.68,-4.06 -20.89,-4.06 -7.22,-0.01 -14.24,1.36 -20.89,4.06 z"
   id="path26"
   inkscape:connector-curvature="0" />
			<path
   class="st0"
   d="m 510.19,535.11 c -2.67,-1.68 -5.14,-3.61 -7.32,-5.89 -3.33,-9.37 -3.9,-19.52 -1.69,-29.16 1.04,-2.05 2.22,-4.01 3.56,-5.9 0.41,-0.58 0.79,-1.19 1.24,-1.75 l 12.53,7.41 c 0,0.1 0,0.21 0,0.31 -0.03,6.74 0.65,13.43 2.01,20.02 0,0.03 0.01,0.05 0.02,0.07 l -9.71,15.23 c -0.23,-0.1 -0.44,-0.21 -0.64,-0.34 z"
   id="path28"
   inkscape:connector-curvature="0"
   style="fill:#ffffff" />
			<path
   class="st0"
   d="m 547.43,560.86 c 2.16,1.1 4.38,2.03 6.67,2.79 -9.7,0.42 -19.5,-1.85 -28.16,-6.82 l 21,3.74 c 0.16,0.1 0.32,0.2 0.49,0.29 z"
   id="path30"
   inkscape:connector-curvature="0"
   style="fill:#ffffff" />
			<path
   class="st0"
   d="m 547.36,557.07 -24.78,-4.42 c -2.9,-3.52 -5.51,-7.24 -7.75,-11.23 -0.57,-1.01 -1.21,-2 -1.69,-3.05 l 9.71,-15.22 c 0.21,0.05 0.45,0.11 0.73,0.18 6.07,1.63 12.25,2.78 18.47,3.69 0.36,0.05 0.67,0.1 0.93,0.12 l 11.63,20.12 c -2.02,2.84 -4.06,5.66 -6.15,8.45 -0.35,0.47 -0.72,0.92 -1.1,1.36 z"
   id="path32"
   inkscape:connector-curvature="0"
   style="fill:#ffffff" />
			<path
   class="st0"
   d="m 588.58,548.5 c -1.97,1.97 -4.07,3.75 -6.26,5.34 -0.36,-2.9 -0.99,-5.75 -1.88,-8.53 l 12.41,-23.16 c 3.42,-1.56 6.72,-3.32 9.78,-5.51 0.4,-0.28 0.73,-0.6 0.99,-0.95 -0.89,11.97 -5.9,23.68 -15.04,32.81 z"
   id="path34"
   inkscape:connector-curvature="0"
   style="fill:#ffffff" />
			<path
   class="st0"
   d="m 588.03,518.47 c 0.46,0.88 0.92,1.77 1.38,2.67 l -11.99,22.37 c -0.07,0.02 -0.14,0.03 -0.2,0.04 -6.48,1.21 -13.01,1.85 -19.6,1.89 l -11.96,-20.69 c 1.86,-3.46 3.71,-6.93 5.54,-10.4 1.24,-2.36 2.46,-4.73 3.68,-7.1 l 24.76,-2.54 c 3.02,4.44 5.9,8.98 8.39,13.76 z"
   id="path36"
   inkscape:connector-curvature="0"
   style="fill:#ffffff" />
			<path
   class="st0"
   d="m 583.01,491.94 c -1.17,3.1 -2.43,6.17 -3.68,9.25 l -24.12,2.48 c -0.29,-0.38 -0.59,-0.75 -0.9,-1.11 -2.85,-3.23 -5.71,-6.43 -8.58,-9.65 0.03,-0.03 0.05,-0.06 0.08,-0.09 -1.16,-1.15 -2.31,-2.31 -3.47,-3.46 l 6.72,-20.22 c 0.46,-0.12 0.93,-0.23 1.4,-0.28 3.65,-0.37 7.31,-0.79 10.97,-1 2.24,-0.13 4.49,-0.2 6.77,-0.04 l 16.62,18.73 c -0.59,1.81 -1.14,3.62 -1.81,5.39 z"
   id="path38"
   inkscape:connector-curvature="0"
   style="fill:#ffffff" />
			<path
   class="st0"
   d="m 588.58,474.98 c 4.58,4.59 8.13,9.82 10.64,15.41 -3.1,-2.14 -6.42,-3.9 -9.91,-5.33 -0.54,-0.22 -1.1,-0.42 -1.67,-0.62 l -16.36,-18.43 c 0.11,-0.8 0.17,-1.59 0.2,-2.4 6.23,2.54 12.06,6.33 17.1,11.37 z"
   id="path40"
   inkscape:connector-curvature="0"
   style="fill:#ffffff" />
			<path
   class="st0"
   d="m 535.18,462.65 c 0.06,0.05 0.1,0.09 0.13,0.1 3.74,1.29 7.14,3.19 10.35,5.45 l -6.27,18.89 c -0.03,0.01 -0.06,0.02 -0.09,0.03 -1.28,0.53 -2.59,1.01 -3.86,1.58 -5.21,2.37 -10.29,4.99 -15.07,8.13 l -12.38,-7.32 c 0.02,-0.39 0.08,-0.78 0.22,-1.13 0.83,-2.21 1.65,-4.44 2.59,-6.61 0.72,-1.67 1.55,-3.29 2.45,-4.87 0.59,-0.65 1.2,-1.29 1.83,-1.92 5.88,-5.88 12.83,-10.05 20.23,-12.52 -0.06,0.06 -0.1,0.12 -0.13,0.19 z"
   id="path42"
   inkscape:connector-curvature="0"
   style="fill:#ffffff" />
		</g>
		<g
   id="g50">
			<path
   d="m 629.69,509.53 -11.82,5.43 0.18,-2.58 7.65,-3.46 c -1.09,-0.08 -2.22,-0.11 -3.35,-0.11 -4.23,0 -11.38,2.14 -19.28,5.28 l -25.35,-6.69 c -2.37,-0.62 -4.89,-0.24 -6.97,1.06 l -1.25,0.78 c -1.22,0.76 -1.23,2.53 -0.02,3.32 l 15.24,9.89 c -3.64,1.86 -7.09,3.75 -10.14,5.56 l -7.82,-4.14 c -1.28,-0.68 -2.79,-0.76 -4.13,-0.22 l -0.74,0.3 c -1.1,0.44 -1.57,1.75 -0.98,2.79 l 4.31,7.65 v 0 c -1.62,1.4 -2.55,2.56 -2.55,3.36 0,2.4 2.96,3 5.56,3 4.65,0 66,-14.05 66,-26.78 0.02,-2.51 -1.71,-3.77 -4.54,-4.44 z m -25.87,24.85 13.5,-4.76 c 0.59,-0.21 1.23,0.19 1.3,0.81 l 1.18,10.12 c 0.3,2.53 -1.06,4.96 -3.37,6.04 l -1.27,0.59 c -0.79,0.37 -1.73,0.17 -2.31,-0.48 l -9.46,-10.74 c -0.44,-0.53 -0.23,-1.35 0.43,-1.58 z m 0,0"
   id="path46"
   inkscape:connector-curvature="0" />
			<path
   class="st0"
   d="m 614.36,551.88 c -1.83,0 -3.64,-0.77 -4.89,-2.2 l -9.46,-10.74 c -0.26,-0.29 -0.48,-0.61 -0.66,-0.94 -13.83,4.13 -28.08,7.28 -31.1,7.28 -9.6,0 -10.09,-6.27 -10.09,-7.53 0,-1.52 0.62,-2.88 1.49,-4.06 l -2.66,-4.73 c -0.92,-1.63 -1.09,-3.58 -0.47,-5.34 0.62,-1.76 1.98,-3.18 3.71,-3.87 l 0.73,-0.29 c 2.59,-1.04 5.48,-0.88 7.94,0.42 l 5.6,2.96 c 0.44,-0.25 0.89,-0.5 1.34,-0.76 l -8.8,-5.71 c -1.87,-1.21 -2.98,-3.27 -2.96,-5.5 0.02,-2.23 1.15,-4.27 3.04,-5.45 l 1.25,-0.78 c 3.12,-1.96 6.96,-2.55 10.53,-1.61 l 23.92,6.31 c 8.67,-3.35 15.24,-5.05 19.55,-5.05 1.35,0 2.55,0.04 3.68,0.12 0.84,0.06 1.62,0.35 2.27,0.8 0.78,-0.25 1.63,-0.29 2.44,-0.09 6.99,1.67 8.03,6.27 8.03,8.86 0,3.96 -2.15,9.04 -15.74,15.39 0.04,0.18 0.07,0.35 0.09,0.53 l 1.18,10.12 c 0.52,4.48 -1.87,8.77 -5.96,10.67 l -1.26,0.59 c -0.89,0.41 -1.82,0.6 -2.74,0.6 z m -4.08,-14.98 4.66,5.29 c 0.28,-0.29 0.43,-0.69 0.38,-1.11 l -0.67,-5.72 z m -4.96,1.75 c 0,0 0.01,0 0,0 z m -36.19,-6.56 c 0.74,1.24 0.82,2.71 0.31,3.99 4.29,-0.7 17.77,-3.67 31.52,-8.04 21.14,-6.71 26.79,-11.49 28.26,-13.31 l -9.45,4.35 c -1.45,0.67 -3.15,0.52 -4.47,-0.39 -1.15,-0.8 -1.86,-2.08 -1.94,-3.46 -2.56,0.8 -5.46,1.83 -8.6,3.08 -0.9,0.36 -1.89,0.42 -2.83,0.17 l -25.3,-6.67 10.57,6.86 c 1.36,0.88 2.14,2.42 2.06,4.03 -0.08,1.62 -1.02,3.06 -2.46,3.8 -3.61,1.84 -6.94,3.67 -9.89,5.42 -1.36,0.8 -3.03,0.85 -4.43,0.11 l -4.83,-2.56 z m -5.52,-3.94 v 0 c -0.01,0 -0.01,0 0,0 z"
   id="path48"
   inkscape:connector-curvature="0"
   style="fill:#ffffff" />
		</g>
		<g
   id="g56">
			<path
   d="m 497.75,553.65 c -13.91,0 -30.89,-1.94 -32.79,-11.19 -2.21,-10.74 18.42,-20.51 30.91,-25.38 l 3.21,-1.25 0.55,3.4 c 0.08,0.51 0.14,0.89 0.19,1.22 0.12,0.82 0.19,1.24 0.49,2.56 l 0.51,2.2 -2.04,0.95 c -13.09,6.1 -15.36,10.28 -15.14,11.38 0.26,1.26 4.73,4.52 22.05,4.52 13.68,0 31.19,-2.05 49.29,-5.79 15.32,-3.16 29.67,-7.21 41.49,-11.72 l 2.38,5.02 c -12.97,7.42 -33.15,14.31 -55.36,18.89 -16.47,3.39 -32.29,5.19 -45.74,5.19 z"
   id="path52"
   inkscape:connector-curvature="0" />
			<path
   class="st0"
   d="m 496.88,519.67 c 0.29,1.79 0.26,1.98 0.72,3.97 -11.14,5.2 -17.53,10.38 -16.69,14.46 0.92,4.48 10.38,6.74 24.78,6.74 13.33,0 30.89,-1.94 49.85,-5.84 15.95,-3.29 30.43,-7.46 41.92,-11.84 -12.2,6.98 -31.85,13.9 -54.54,18.57 -16.76,3.45 -32.47,5.13 -45.17,5.13 -17.19,0 -28.85,-3.07 -30.07,-8.97 -1.34,-6.5 10.37,-14.88 29.2,-22.22 m 4.39,-7.69 -6.42,2.5 c -23.66,9.21 -34.64,18.82 -32.63,28.54 1.83,8.9 13.79,13.41 35.52,13.41 13.64,0 29.65,-1.81 46.3,-5.24 22.49,-4.63 42.97,-11.63 56.18,-19.2 l -4.75,-10.04 c -11.69,4.46 -25.89,8.47 -41.06,11.59 -17.92,3.69 -35.23,5.73 -48.73,5.73 -11.13,0 -16.59,-1.43 -18.69,-2.41 1.19,-1.36 4.43,-4.19 12.95,-8.17 l 4.09,-1.91 -1.01,-4.4 c -0.28,-1.23 -0.34,-1.58 -0.45,-2.35 -0.05,-0.34 -0.11,-0.73 -0.19,-1.25 z"
   id="path54"
   inkscape:connector-curvature="0"
   style="fill:#ffffff" />
		</g>
		<path
   d="m 555.54,539 c -39.44,8.13 -72.86,7.73 -74.63,-0.9 -0.84,-4.08 5.55,-9.27 16.69,-14.46 -0.46,-1.98 -0.42,-2.17 -0.72,-3.97 -18.83,7.33 -30.54,15.71 -29.2,22.22 2.11,10.25 35.8,11.96 75.24,3.84 22.69,-4.68 42.34,-11.59 54.54,-18.57 -11.49,4.38 -25.98,8.55 -41.92,11.84 z"
   id="path58"
   inkscape:connector-curvature="0" />
		<path
   d="m 629.69,509.53 -11.82,5.43 0.18,-2.58 7.65,-3.46 c -1.09,-0.08 -2.22,-0.11 -3.35,-0.11 -4.23,0 -11.38,2.14 -19.28,5.28 l -25.35,-6.69 c -2.37,-0.62 -4.89,-0.24 -6.97,1.06 l -1.25,0.78 c -1.22,0.76 -1.23,2.53 -0.02,3.32 l 15.24,9.89 c -3.64,1.86 -7.09,3.75 -10.14,5.56 l -7.82,-4.14 c -1.28,-0.68 -2.79,-0.76 -4.13,-0.22 l -0.74,0.3 c -1.1,0.44 -1.57,1.75 -0.98,2.79 l 4.31,7.65 v 0 c -1.62,1.4 -2.55,2.56 -2.55,3.36 0,2.4 2.96,3 5.56,3 4.65,0 66,-14.05 66,-26.78 0.02,-2.51 -1.71,-3.77 -4.54,-4.44 z m -25.87,24.85 13.5,-4.76 c 0.59,-0.21 1.23,0.19 1.3,0.81 l 1.18,10.12 c 0.3,2.53 -1.06,4.96 -3.37,6.04 l -1.27,0.59 c -0.79,0.37 -1.73,0.17 -2.31,-0.48 l -9.46,-10.74 c -0.44,-0.53 -0.23,-1.35 0.43,-1.58 z m 0,0"
   id="path60"
   inkscape:connector-curvature="0" />
		<path
   d="m 496.33,510.3 c 0,0 -0.37,11.87 3.41,20.68 2.52,-0.86 3.13,-1.76 3.13,-1.76 0,0 -3.51,-10.38 -3.01,-18.75 0.5,-8.37 -3.53,-0.17 -3.53,-0.17 z"
   id="path62"
   inkscape:connector-curvature="0" />
	</g>
</g>
</svg>