<?xml version="1.0" encoding="utf-8"?>
<!-- Generator: Adobe Illustrator 23.0.0, SVG Export Plug-In . SVG Version: 6.00 Build 0)  -->
<svg version="1.1" id="Layer_1" xmlns="http://www.w3.org/2000/svg" xmlns:xlink="http://www.w3.org/1999/xlink" x="0px" y="0px"
	 viewBox="0 0 265 125" style="enable-background:new 0 0 265 125;" xml:space="preserve">
<style type="text/css">
	.st0{fill:#F15A24;}
	.st1{fill:#1F2356;}
	.st2{fill:none;stroke:#F15A24;stroke-width:4;stroke-linecap:round;stroke-linejoin:round;stroke-miterlimit:10;}
	.st3{fill:none;stroke:#1F2356;stroke-width:4;stroke-linecap:round;stroke-miterlimit:10;}
</style>
<g>
	<path class="st0" d="M189.16,52.98V52.8l-1.22-6.55L187.72,46h0.21l-0.62-0.67h-15.31l0.67,0.67h1.55h0.05v0.26l-0.24,0.2
		l-6.58,5.44h0l-1.1,0.91h0.07l-0.18,0.13c-0.18-0.15-0.39-0.47-0.54-0.48c-5.33-0.43-10.51-1.07-17.07-1.86
		c0.16,2.84,8.96,5.98,8.78,6.97l-0.11,0.41l1.11,1.21h29.64c-0.06-0.41-0.04-0.81,0.08-1.21l0.12-0.41h0.14
		c2.36-1.22,4.08-2.87,5.25-4.9v-1.03C192.53,52.11,191.03,52.71,189.16,52.98z"/>
	<rect x="182.66" y="41.31" class="st0" width="0.9" height="5.2"/>
	<rect x="176.18" y="44.44" class="st0" width="0.44" height="1.33"/>
</g>
<path class="st1" d="M57.75,42.82c0,0,0.05-1.36,0-6.08c-0.05-4.71-2.51-5.71-2.51-5.71s-2.46,1-2.51,5.71c-0.05,4.71,0,6.08,0,6.08
	l-17.76,9.74v2.1l7.96-2.36v1.78h3.09v-2.93l6.55-1.89c0,0,0.58,13.52,1,15.72c-1.31,0.79-3.98,2.31-3.98,2.31v1.89l5.4-1.26h0.52
	l5.4,1.26v-1.89c0,0-2.67-1.52-3.98-2.31c0.42-2.2,1-15.72,1-15.72l6.55,1.89v2.93h3.09V52.3l7.96,2.36v-2.1L57.75,42.82z"/>
<circle class="st0" cx="211" cy="52" r="5"/>
<circle class="st1" cx="92" cy="52" r="5"/>
<line class="st2" x1="149" y1="82" x2="224" y2="82"/>
<line class="st3" x1="30" y1="82" x2="105" y2="82"/>
</svg>
