<?xml version="1.0" encoding="UTF-8" standalone="no"?>
<!-- Generator: Adobe Illustrator 23.0.0, SVG Export Plug-In . SVG Version: 6.00 Build 0)  -->

<svg
   xmlns:dc="http://purl.org/dc/elements/1.1/"
   xmlns:cc="http://creativecommons.org/ns#"
   xmlns:rdf="http://www.w3.org/1999/02/22-rdf-syntax-ns#"
   xmlns:svg="http://www.w3.org/2000/svg"
   xmlns="http://www.w3.org/2000/svg"
   xmlns:sodipodi="http://sodipodi.sourceforge.net/DTD/sodipodi-0.dtd"
   xmlns:inkscape="http://www.inkscape.org/namespaces/inkscape"
   version="1.1"
   id="Layer_1"
   x="0px"
   y="0px"
   viewBox="0 0 40.560001 38.150002"
   xml:space="preserve"
   sodipodi:docname="repulo_ikon.svg"
   width="40.560001"
   height="38.150002"
   inkscape:version="0.92.3 (2405546, 2018-03-11)"><metadata
   id="metadata27"><rdf:RDF><cc:Work
       rdf:about=""><dc:format>image/svg+xml</dc:format><dc:type
         rdf:resource="http://purl.org/dc/dcmitype/StillImage" /><dc:title></dc:title></cc:Work></rdf:RDF></metadata><defs
   id="defs25" /><sodipodi:namedview
   pagecolor="#ffffff"
   bordercolor="#666666"
   borderopacity="1"
   objecttolerance="10"
   gridtolerance="10"
   guidetolerance="10"
   inkscape:pageopacity="0"
   inkscape:pageshadow="2"
   inkscape:window-width="1533"
   inkscape:window-height="845"
   id="namedview23"
   showgrid="false"
   fit-margin-top="0"
   fit-margin-left="0"
   fit-margin-right="0"
   fit-margin-bottom="0"
   inkscape:zoom="1.2301887"
   inkscape:cx="97.53"
   inkscape:cy="6.68"
   inkscape:window-x="67"
   inkscape:window-y="27"
   inkscape:window-maximized="1"
   inkscape:current-layer="Layer_1" />
<style
   type="text/css"
   id="style2">
	.st0{fill:#F15A24;}
	.st1{fill:#1722b1;}
	.st2{fill:none;stroke:#F15A24;stroke-width:4;stroke-linecap:round;stroke-linejoin:round;stroke-miterlimit:10;}
	.st3{fill:none;stroke:#1722b1;stroke-width:4;stroke-linecap:round;stroke-miterlimit:10;}
</style>

<path
   class="st1"
   d="m 22.78,11.79 c 0,0 0.05,-1.36 0,-6.08 C 22.73,1 20.27,0 20.27,0 c 0,0 -2.46,1 -2.51,5.71 -0.05,4.71 0,6.08 0,6.08 L 0,21.53 v 2.1 l 7.96,-2.36 v 1.78 h 3.09 v -2.93 l 6.55,-1.89 c 0,0 0.58,13.52 1,15.72 -1.31,0.79 -3.98,2.31 -3.98,2.31 v 1.89 l 5.4,-1.26 h 0.52 l 5.4,1.26 v -1.89 c 0,0 -2.67,-1.52 -3.98,-2.31 0.42,-2.2 1,-15.72 1,-15.72 l 6.55,1.89 v 2.93 h 3.09 v -1.78 l 7.96,2.36 v -2.1 z"
   id="path12"
   inkscape:connector-curvature="0"
   style="fill:#1722b1" />




</svg>