<?xml version="1.0" encoding="UTF-8" standalone="no"?>
<!-- Generator: Adobe Illustrator 23.0.1, SVG Export Plug-In . SVG Version: 6.00 Build 0)  -->

<svg
   xmlns:dc="http://purl.org/dc/elements/1.1/"
   xmlns:cc="http://creativecommons.org/ns#"
   xmlns:rdf="http://www.w3.org/1999/02/22-rdf-syntax-ns#"
   xmlns:svg="http://www.w3.org/2000/svg"
   xmlns="http://www.w3.org/2000/svg"
   xmlns:sodipodi="http://sodipodi.sourceforge.net/DTD/sodipodi-0.dtd"
   xmlns:inkscape="http://www.inkscape.org/namespaces/inkscape"
   version="1.0"
   id="Layer_1"
   x="0px"
   y="0px"
   viewBox="0 0 316.83075 134.52467"
   enable-background="new 0 0 800 600"
   xml:space="preserve"
   sodipodi:docname="repulo2.svg"
   width="316.83075"
   height="134.52467"
   inkscape:version="0.92.3 (2405546, 2018-03-11)"><metadata
   id="metadata967"><rdf:RDF><cc:Work
       rdf:about=""><dc:format>image/svg+xml</dc:format><dc:type
         rdf:resource="http://purl.org/dc/dcmitype/StillImage" /><dc:title></dc:title></cc:Work></rdf:RDF></metadata><defs
   id="defs965" /><sodipodi:namedview
   pagecolor="#ffffff"
   bordercolor="#666666"
   borderopacity="1"
   objecttolerance="10"
   gridtolerance="10"
   guidetolerance="10"
   inkscape:pageopacity="0"
   inkscape:pageshadow="2"
   inkscape:window-width="640"
   inkscape:window-height="480"
   id="namedview963"
   showgrid="false"
   fit-margin-top="0"
   fit-margin-left="0"
   fit-margin-right="0"
   fit-margin-bottom="0"
   inkscape:zoom="0.39333333"
   inkscape:cx="158.03076"
   inkscape:cy="62.224668"
   inkscape:window-x="446"
   inkscape:window-y="505"
   inkscape:window-maximized="0"
   inkscape:current-layer="Layer_1" />

<g
   id="g960"
   transform="translate(-241.96924,-227.7)">
	<g
   id="g880">
		<path
   d="m 391,284.7 0.3,0.2 0.5,-1.8 c 0,0 -1.9,0 -3.5,-1.4 -2.2,0 -5,0.1 -6.1,0.1 -1.9,0 -6.8,1.3 -10.1,2.4 -2.5,0.9 -3.2,4.1 -3.4,5.6 12.1,-2.8 22.3,-5.1 22.3,-5.1 z"
   id="path874"
   inkscape:connector-curvature="0"
   style="fill:#999999" />
		<path
   d="m 376.4,288 c -0.5,-1.5 -1.8,-2.6 -3.3,-2.6 -2,0 -3.5,1.8 -3.5,4.1 2.4,-0.5 4.7,-1 6.8,-1.5 z"
   id="path876"
   inkscape:connector-curvature="0"
   style="fill:#333333" />
		<path
   d="m 376.5,286 c 0,0 0.7,1 1,2 0.3,1 15.8,-3 15.8,-3 l 0.2,-2.3 -9.9,1.2 z"
   id="path878"
   inkscape:connector-curvature="0"
   style="fill:#666666" />
	</g>
	<path
   d="m 391,284.7 c 0,0 -44.1,10.1 -55.5,12.8 -11.4,2.7 -25.7,5.8 -30.3,7.4 -4.6,1.6 -17.7,6 -23.8,9.8 -6.2,3.8 -13.5,13.8 -15.1,15.4 -1.6,1.6 -25.3,22.1 -24.3,29.1 1,7.1 36.7,-0.3 43.8,-2 7.1,-1.7 41.5,-13.5 43.4,-14.2 1.9,-0.7 10.3,-4 12.4,-4.2 2,-0.2 14.3,-0.6 17.4,-1 3.1,-0.5 12.5,-2.5 15,-3.3 2.5,-0.8 21.7,-7.1 24.6,-8.6 2.8,-1.6 6.7,-8 8.6,-10.2 1.9,-2.2 7.1,-7.7 9.4,-10.3 2.3,-2.6 16.3,-16.4 17.5,-17.4 1.3,-1 4,-3.6 3.8,-5.5 -0.2,-1.8 -1.5,-3 -4,-3.1 -2.5,-0.1 -5.9,-0.8 -5.9,-0.8 l 8.4,-40.5 1.6,-6.8 0.4,-2.5 c 0,0 -2,-1.1 -5.4,-1.1 -3.5,0 -5.1,1.9 -5,2.7 0.1,0.8 2.6,2.1 2.6,2.1 0,0 -11.1,22.1 -12.7,24.9 -1.6,2.8 -3.2,8.9 -5.9,9.5 -2.8,0.6 -14.4,1.5 -17.5,1.9 -3.1,0.4 -8.4,1 -8.2,7.8 0.2,6.8 5.5,6.8 5.5,6.8 l -0.5,1.8 z"
   id="path882"
   inkscape:connector-curvature="0"
   style="fill:#999999" />
	<path
   d="m 303.4,293.5 c 1.1,0.9 6.8,6.2 9.8,9.1 4.6,-1.1 10.4,-2.5 16.1,-3.8 -4.4,-1.9 -11.1,-4.9 -13.3,-6.1 -3.4,-1.9 -5.3,-2.9 -6.1,-3.9 -0.8,-1.1 -1.7,-4 -1.3,-6.2 0.4,-2.2 2.4,-12.1 2.4,-12.1 l -1.7,0.4 c 0,0 -5.7,11.3 -6.4,13.4 -0.7,2.1 -1.4,3.7 -1.3,5.7 0.1,1.9 0.3,2.2 1.8,3.5 z"
   id="path884"
   inkscape:connector-curvature="0"
   style="fill:#999999" />
	<path
   d="m 403.6,320.3 c 0,0 -32.9,4.8 -35.5,10.4 0,1.9 1.5,2.1 1.5,2.1 l 27.6,0.7 c 0,0 66.1,3 68.6,3 2.5,0 55.1,1.6 58.3,1.3 3.3,-0.3 11.7,0.5 17.7,-3.5 6,-4 6.3,-5.3 8.4,-9 2.1,-3.7 8.6,-17.5 8.6,-17.5 l -2.1,1.6 c 0,0 -9.5,19 -11.1,20 -1.6,1 -4.5,3.4 -15.1,3 -10.6,-0.4 -77.3,-4.8 -77.3,-4.8 0,0 -21.3,-2 -28.8,-3.6 -7.5,-1.6 -20.8,-3.7 -20.8,-3.7 z"
   id="path886"
   inkscape:connector-curvature="0"
   style="fill:#999999" />
	<path
   d="m 398,263.9 c 1.4,0.2 12.6,0.6 16.5,0.7 0.5,-0.7 0.9,-1.5 1.3,-2.4 l -17.8,0.6 c 0,-0.1 -1.7,0.8 0,1.1 z"
   id="path888"
   inkscape:connector-curvature="0"
   style="fill:#666666" />
	<g
   id="g914">
		<path
   d="m 341.5,317.5 c -0.9,0.1 -1.3,0.9 -1.3,1.5 0,0.6 0.2,3.2 0.2,3.2 0,0 0.2,1.9 1.6,1.6 1.4,-0.3 1.3,-1.3 1.3,-2.4 0,-1.1 -0.1,-2.3 -0.1,-2.6 -0.1,-0.2 -0.6,-1.4 -1.7,-1.3 z"
   id="path890"
   inkscape:connector-curvature="0"
   style="fill:#333333" />
		<path
   d="m 347.4,315.9 c -0.9,0.1 -1.3,0.9 -1.3,1.5 0,0.6 0.2,3.1 0.2,3.1 0,0 0.2,1.8 1.6,1.6 1.4,-0.2 1.2,-1.2 1.2,-2.3 0,-1.1 -0.1,-2.3 -0.1,-2.5 -0.1,-0.3 -0.5,-1.5 -1.6,-1.4 z"
   id="path892"
   inkscape:connector-curvature="0"
   style="fill:#333333" />
		<path
   d="m 353.1,314.1 c -0.9,0.1 -1.3,0.9 -1.3,1.5 0,0.6 0.2,3 0.2,3 0,0 0.2,1.7 1.5,1.6 1.3,-0.2 1.2,-1.2 1.2,-2.3 0,-1.1 -0.1,-2.2 -0.1,-2.5 0,-0.3 -0.5,-1.4 -1.5,-1.3 z"
   id="path894"
   inkscape:connector-curvature="0"
   style="fill:#333333" />
		<path
   d="m 358.1,312.7 c -0.8,0.1 -1.2,0.9 -1.2,1.4 0,0.5 0.2,2.9 0.2,2.9 0,0 0.2,1.7 1.5,1.5 1.2,-0.2 1.2,-1.2 1.1,-2.2 0,-1 -0.1,-2.2 -0.1,-2.4 0,-0.2 -0.5,-1.3 -1.5,-1.2 z"
   id="path896"
   inkscape:connector-curvature="0"
   style="fill:#333333" />
		<path
   d="m 363.3,310.9 c -0.8,0.1 -1.2,0.8 -1.2,1.4 0,0.5 0.2,2.8 0.2,2.8 0,0 0.2,1.6 1.4,1.5 1.2,-0.1 1.1,-1.1 1.1,-2.1 0,-1 -0.1,-2.1 -0.1,-2.3 0,-0.2 -0.4,-1.3 -1.4,-1.3 z"
   id="path898"
   inkscape:connector-curvature="0"
   style="fill:#333333" />
		<path
   d="m 368.1,309.5 c -0.8,0.1 -1.1,0.8 -1.1,1.3 0,0.5 0.2,2.8 0.2,2.8 0,0 0.2,1.6 1.4,1.4 1.1,-0.1 1.1,-1.1 1,-2.1 0,-1 -0.1,-2.1 -0.1,-2.3 0,-0.1 -0.5,-1.1 -1.4,-1.1 z"
   id="path900"
   inkscape:connector-curvature="0"
   style="fill:#333333" />
		<path
   d="m 373,308 c -0.8,0.1 -1.1,0.8 -1.1,1.3 0,0.5 0.2,2.7 0.2,2.7 0,0 0.2,1.5 1.4,1.4 1.1,-0.1 1,-1.1 1,-2 0,-0.9 -0.1,-2 -0.1,-2.2 0,-0.2 -0.5,-1.2 -1.4,-1.2 z"
   id="path902"
   inkscape:connector-curvature="0"
   style="fill:#333333" />
		<path
   d="m 378.4,306.5 c -0.7,0.1 -1.1,0.8 -1.1,1.3 0,0.5 0.2,2.6 0.2,2.6 0,0 0.1,1.4 1.3,1.3 1,-0.1 1,-1 0.9,-1.9 0,-0.9 -0.1,-2 -0.1,-2.2 0,-0.2 -0.4,-1.2 -1.2,-1.1 z"
   id="path904"
   inkscape:connector-curvature="0"
   style="fill:#333333" />
		<path
   d="m 383.3,304.9 c -0.7,0.1 -1,0.7 -1,1.2 0,0.5 0.2,2.5 0.2,2.5 0,0 0.1,1.4 1.3,1.3 0.9,-0.1 0.9,-1 0.9,-1.9 0,-0.9 -0.1,-1.9 -0.1,-2.1 0,-0.2 -0.5,-1 -1.3,-1 z"
   id="path906"
   inkscape:connector-curvature="0"
   style="fill:#333333" />
		<path
   d="m 387.7,303.9 c -0.7,0 -1,0.7 -1,1.2 0,0.5 0.1,2.4 0.1,2.4 0,0 0.1,1.3 1.2,1.2 0.9,-0.1 0.9,-0.9 0.9,-1.8 0,-0.9 -0.1,-1.8 -0.1,-2 0,-0.2 -0.4,-1.1 -1.1,-1 z"
   id="path908"
   inkscape:connector-curvature="0"
   style="fill:#333333" />
		<path
   d="m 392,302.6 c -0.7,0 -1,0.7 -1,1.1 0,0.4 0.1,2.3 0.1,2.3 0,0 0.1,1.3 1.2,1.2 0.8,0 0.8,-0.9 0.8,-1.7 0,-0.8 -0.1,-1.8 -0.1,-2 0,-0.2 -0.3,-1 -1,-0.9 z"
   id="path910"
   inkscape:connector-curvature="0"
   style="fill:#333333" />
		<path
   d="m 396.3,301.3 c -0.6,0 -0.9,0.7 -0.9,1.1 0,0.4 0.1,2.3 0.1,2.3 0,0 0.1,1.2 1.1,1.2 0.8,0 0.8,-0.9 0.8,-1.6 0,-0.8 -0.1,-1.7 -0.1,-1.9 0,-0.4 -0.3,-1.2 -1,-1.1 z"
   id="path912"
   inkscape:connector-curvature="0"
   style="fill:#333333" />
	</g>
	<g
   id="g926">
		<path
   d="m 277.2,321.6 -7.7,9.6 c 0.1,0.1 0.2,0.1 0.3,0.2 1,0 3,0.8 3.8,1.1 l 7.3,-10.2 z"
   id="path916"
   inkscape:connector-curvature="0"
   style="fill:#333333" />
		<path
   d="m 276.4,320.9 v -2.1 c -3.1,3 -6,6.5 -8,8.9 l 0.2,2.9 c 0,0 0,0 0,0 z"
   id="path918"
   inkscape:connector-curvature="0"
   style="fill:#333333" />
		<polygon
   points="299.3,322.1 297.2,331.5 307.6,328.9 303.2,321.4 "
   id="polygon920"
   style="fill:#333333" />
		<polygon
   points="290.1,322.9 283,322.8 275.7,333 285.1,333 285.6,333 "
   id="polygon922"
   style="fill:#333333" />
		<polygon
   points="295,331.8 297.1,322.4 292.3,322.9 288,332.7 "
   id="polygon924"
   style="fill:#333333" />
	</g>
	<path
   d="m 383,330.9 -14.9,-0.3 c 0,0 -2.6,-2.5 -5.2,-4.8 -2.6,-2.3 -3.6,-3.1 -7.8,-3.6 -4.1,-0.5 -27.2,6.6 -36.6,10 -9.4,3.3 -63.1,24.3 -70.3,26.6 -3,0.9 -4.9,0.8 -6.1,0.4 0,0 0,0 0,0 1,7.1 36.7,-0.3 43.8,-2 7.1,-1.7 41.5,-13.5 43.4,-14.2 1.9,-0.7 10.3,-4 12.4,-4.2 2,-0.2 14.3,-0.6 17.4,-1 3.1,-0.5 12.5,-2.5 15,-3.3 1,-0.3 4.8,-1.6 9.2,-3 z"
   id="path928"
   inkscape:connector-curvature="0"
   style="fill:#666666" />
	<path
   d="m 433.4,285.5 c 0,0 -6.7,-0.8 -11.7,0.1 -5,0.9 -8.9,3 -10.2,4.1 -1.3,1.1 -3.1,2.2 -2.2,7.6 0.7,4.4 5.7,5.1 8.3,5.2 4.9,-5 13.9,-12.7 14.9,-13.5 0.6,-0.5 2.3,-1.5 3.1,-2.5 -0.6,-0.1 -2,-1 -2.2,-1 z"
   id="path930"
   inkscape:connector-curvature="0"
   style="fill:#666666" />
	<g
   id="g934">
		<path
   d="m 311.3,349.5 1.1,-1.1 c 1.8,-1.9 4.9,-6.4 4.7,-14.7 -0.3,-9.5 -3.3,-13.3 -3.4,-13.4 -0.3,-0.4 -0.4,-1 -0.2,-1.6 0.1,-0.4 0.5,-1.2 1.8,-1.6 1.4,-0.4 5.9,-1.7 7.1,-1.8 0.9,-0.1 3.1,-0.1 4.1,3.1 l 0.1,0.3 c 0.9,2.8 2.8,8.5 2.4,14.4 -0.3,3.7 -1.9,7.6 -5,12.1 l -0.1,0.1 h -0.1 c -3,1 -6.8,2.3 -10.9,3.7 z M 322.8,316 c -0.1,0 -0.3,0 -0.4,0 -1,0.1 -5,1.2 -7,1.8 -0.7,0.2 -1.1,0.6 -1.3,1.1 -0.1,0.4 0,0.7 0.1,0.8 0.3,0.4 3.3,4.3 3.6,13.9 0.2,7.3 -2.1,11.7 -3.9,14.2 3.5,-1.2 6.8,-2.3 9.4,-3.2 3,-4.3 4.5,-8.1 4.8,-11.6 0.4,-5.7 -1.4,-11.4 -2.3,-14.1 l -0.1,-0.3 c -0.8,-2.2 -2,-2.6 -2.9,-2.6 z"
   id="path932"
   inkscape:connector-curvature="0"
   style="fill:#333333" />
	</g>
	<path
   d="m 548.6,327.8 c -2.9,2.2 -6.5,4.8 -8.1,5.3 -3,0.9 -13.5,1.8 -18.1,1.8 -4.5,0 -51.3,-1.3 -54.6,-1.5 -3.3,-0.2 -39.5,-2.4 -44.2,-2.8 -3.9,-0.4 -40,-1.9 -52.4,-2.4 -1.6,0.8 -2.7,1.6 -3.1,2.5 0,1.9 1.5,2.1 1.5,2.1 l 27.6,0.7 c 0,0 66.1,3 68.6,3 2.5,0 55.1,1.6 58.3,1.3 3.3,-0.3 11.7,0.5 17.7,-3.5 4.2,-3 5.6,-4.5 6.8,-6.5 z"
   id="path936"
   inkscape:connector-curvature="0"
   style="fill:#666666" />
	<path
   d="m 318.7,301.3 -12.1,-8.4 c 0,0 -3.2,-2.5 -3.3,-4.3 -0.1,-1.4 4.6,-12.7 6.8,-18 l -0.7,0.2 c 0,0 -5.7,11.3 -6.4,13.4 -0.7,2.1 -1.4,3.7 -1.3,5.7 0.1,2 0.3,2.3 1.9,3.6 1.1,0.9 6.8,6.2 9.8,9.1 1.5,-0.4 3.3,-0.8 5.3,-1.3 z"
   id="path938"
   inkscape:connector-curvature="0"
   style="fill:#666666" />
	<path
   d="m 413.2,267.4 c -0.4,-0.3 -1.4,-0.4 -2.3,-0.5 -4,0.6 -13.5,1.3 -16.3,1.7 -3.1,0.4 -8.4,1 -8.2,7.8 0.2,6.8 5.5,6.8 5.5,6.8 v 0.1 l 3.4,0.2 c 0,0 10.1,-1.1 13,-2.4 2.9,-1.4 6.9,-5.4 7.3,-7.6 0.4,-2.2 -1.1,-5.4 -2.4,-6.1 z"
   id="path940"
   inkscape:connector-curvature="0"
   style="fill:#999999" />
	<ellipse
   cx="391.5"
   cy="276.5"
   rx="4.5999999"
   ry="5.3000002"
   id="ellipse942"
   style="fill:#333333" />
	<path
   d="m 392.3,280.6 c -2.1,0 -3.8,-2 -3.8,-4.4 0,-1.6 0.8,-3 1.9,-3.8 -1.6,0.5 -2.7,2.2 -2.7,4.2 0,2.4 1.7,4.4 3.8,4.4 0.7,0 1.3,-0.2 1.9,-0.6 -0.4,0.2 -0.7,0.2 -1.1,0.2 z"
   id="path944"
   inkscape:connector-curvature="0"
   style="fill:#666666" />
	<path
   d="m 428.2,230.4 c 0.4,0.8 2.5,1.9 2.5,1.9 0,0 -0.1,0.2 -0.2,0.4 2,0.2 4.1,-0.3 4.1,-0.3 l -1.3,2.5 c 0,0 -8.3,21.7 -9.2,23.1 -0.9,1.4 -4.5,8.4 -4.9,10.1 -0.4,1.6 -0.9,5.3 -1.4,8.3 -0.5,3 -2.2,4.4 -3.2,3.9 -0.5,-0.2 -0.9,-1.6 -1.6,-2.9 -1.4,1.5 -3.2,2.9 -4.7,3.6 -2.9,1.4 -13,2.4 -13,2.4 l -1.9,-0.1 c -0.6,0 -1.1,0 -1.6,0 l -0.4,1.3 c 3.8,0.6 14.5,2.1 18.4,1.7 4.8,-0.5 10.1,-5.8 12.7,-7.6 1.5,-1 3.9,-1.1 5.7,-0.9 l 8.3,-39.9 1.6,-6.8 0.3,-1.7 c -3.6,1.3 -7.9,1.2 -10.2,1 z"
   id="path946"
   inkscape:connector-curvature="0"
   style="fill:#666666" />
	<path
   d="m 410.4,274.3 c -2.3,-0.9 -9.7,1.1 -11.7,1.7 -0.2,-3.4 -2.6,-6.1 -5.6,-6.1 -0.2,0 -0.4,0 -0.6,0 2.8,0.4 5,3.1 5,6.5 0,3.3 -2.2,6.1 -5,6.5 0.1,0 0.1,0 0.2,0 h -0.1 l -0.7,0.4 1.9,0.1 h 0.3 l 1.2,0.1 c 0,0 10.1,-1.1 13,-2.4 1.5,-0.7 3.3,-2.1 4.7,-3.6 -0.6,-1.4 -1.4,-2.7 -2.6,-3.2 z"
   id="path948"
   inkscape:connector-curvature="0"
   style="fill:#666666" />
	<path
   d="m 434,287.6 c 0,0 -6.7,-0.8 -11.7,0.1 -5,0.9 -8.9,3 -10.2,4.1 -1.3,1.1 -3.1,2.2 -2.2,7.6 0.9,5.4 8.1,5.3 9.7,5.3 2.4,0 8,-1.7 12.4,-5.6 4.4,-3.9 5.5,-5.1 5.9,-6.2 0.2,-0.6 0.6,-1.9 -0.3,-3.2 -0.9,-1.3 -3,-2 -3.6,-2.1 z"
   id="path950"
   inkscape:connector-curvature="0"
   style="fill:#999999" />
	<path
   d="m 421.2,297.5 c 0,3.7 -2.5,6.8 -5.7,7 1.7,0.3 3.3,0.3 3.9,0.3 2.4,0 8,-1.7 12.4,-5.6 4.4,-3.9 5.5,-5.1 5.9,-6.2 0.2,-0.5 0.5,-1.4 0.1,-2.5 l -16.7,6.2 c 0.1,0.2 0.1,0.5 0.1,0.8 z"
   id="path952"
   inkscape:connector-curvature="0"
   style="fill:#666666" />
	<ellipse
   cx="415.20001"
   cy="297.5"
   rx="4.5999999"
   ry="5.3000002"
   id="ellipse954"
   style="fill:#333333" />
	<path
   d="m 415.8,301.4 c -2.1,0 -3.8,-2 -3.8,-4.4 0,-1.6 0.8,-3 1.9,-3.8 -1.6,0.5 -2.7,2.2 -2.7,4.2 0,2.4 1.7,4.4 3.8,4.4 0.7,0 1.3,-0.2 1.9,-0.6 -0.3,0.1 -0.7,0.2 -1.1,0.2 z"
   id="path956"
   inkscape:connector-curvature="0"
   style="fill:#666666" />
	<path
   d="m 419.7,264.8 c 0,0 5,-3.5 11.6,-2.5 6.6,1 27.9,4.9 27.9,4.9 l 22.2,4.1 c 0,0 -1.3,1.6 -6.4,1.3 -5.1,-0.3 -34.6,-5 -34.6,-5 0,0 -18.4,-2.2 -19.1,-2.2 -0.7,-0.1 -1.4,-0.2 -1.6,-0.6 z"
   id="path958"
   inkscape:connector-curvature="0"
   style="fill:#999999" />
</g>
</svg>