<?xml version="1.0" encoding="UTF-8" standalone="no"?>
<!-- Generator: Adobe Illustrator 23.0.0, SVG Export Plug-In . SVG Version: 6.00 Build 0)  -->

<svg
   xmlns:dc="http://purl.org/dc/elements/1.1/"
   xmlns:cc="http://creativecommons.org/ns#"
   xmlns:rdf="http://www.w3.org/1999/02/22-rdf-syntax-ns#"
   xmlns:svg="http://www.w3.org/2000/svg"
   xmlns="http://www.w3.org/2000/svg"
   xmlns:sodipodi="http://sodipodi.sourceforge.net/DTD/sodipodi-0.dtd"
   xmlns:inkscape="http://www.inkscape.org/namespaces/inkscape"
   version="1.1"
   id="Layer_1"
   x="0px"
   y="0px"
   viewBox="0 0 438.56 178.13777"
   xml:space="preserve"
   sodipodi:docname="repulo.svg"
   width="438.56"
   height="178.13777"
   inkscape:version="0.92.3 (2405546, 2018-03-11)"><metadata
   id="metadata73"><rdf:RDF><cc:Work
       rdf:about=""><dc:format>image/svg+xml</dc:format><dc:type
         rdf:resource="http://purl.org/dc/dcmitype/StillImage" /><dc:title></dc:title></cc:Work></rdf:RDF></metadata><defs
   id="defs71" /><sodipodi:namedview
   pagecolor="#ffffff"
   bordercolor="#666666"
   borderopacity="1"
   objecttolerance="10"
   gridtolerance="10"
   guidetolerance="10"
   inkscape:pageopacity="0"
   inkscape:pageshadow="2"
   inkscape:window-width="774"
   inkscape:window-height="480"
   id="namedview69"
   showgrid="false"
   fit-margin-top="0"
   fit-margin-left="0"
   fit-margin-right="0"
   fit-margin-bottom="0"
   inkscape:zoom="0.23046875"
   inkscape:cx="240.9"
   inkscape:cy="92.507778"
   inkscape:window-x="67"
   inkscape:window-y="27"
   inkscape:window-maximized="0"
   inkscape:current-layer="Layer_1" />
<style
   type="text/css"
   id="style2">
	.st0{fill:#999999;}
	.st1{fill:#CCCCCC;}
	.st2{fill:#666666;}
	.st3{fill:#333333;}
	.st4{fill:none;stroke:#FF931E;stroke-width:0.5;stroke-linecap:round;stroke-linejoin:round;stroke-miterlimit:10;}
</style>
<g
   id="g66"
   transform="translate(-399.1,-426.37)">
	<path
   class="st0"
   d="m 801.49,426.37 17,21 v 2 l -53,58 c 0,0 11,1 15,2 4,1 13,5 19,9 6,4 11.96,9.04 16.44,13.39 4.48,4.35 21.2,20.28 21.73,39.38 -0.79,2.5 -11.33,8.3 -25.55,8.96 -14.22,0.66 -38.06,-3.56 -58.61,-9.61 -20.54,-6.06 -31.08,-8.69 -31.08,-8.69 0,0 -13.43,4.08 -20.15,3.82 -6.72,-0.26 -18.96,-0.4 -18.96,-0.4 L 579.4,579.18 420.31,604.33 c 0,0 -4.74,0.4 -5.14,0 -0.4,-0.4 -1.19,-2.11 -1.19,-2.11 l -14.22,-24.89 -0.66,-2.11 14.22,20.81 c 0,0 3.95,1.45 5.14,2.77 3.95,-0.53 87.97,-16.86 87.97,-16.86 l 86.79,-21.07 c 0,0 23.84,-4.87 29.11,-5.93 5.27,-1.06 18.15,-3.69 18.15,-3.69 0,0 -5.38,-10.8 -7.22,-14.36 -1.84,-3.56 -4.48,-7.24 -4.48,-7.24 0,0 -5.36,-2.25 -11.2,-6.27 -1.03,3.31 -2.68,10.01 -11.67,11.83 -8.99,1.82 -16.32,-1.5 -22.08,-6.78 -5.76,-5.28 -5.13,-11.48 -4.65,-12.99 0.47,-1.51 3.78,-8.06 12.22,-9.71 8.44,-1.66 10.8,-0.87 10.8,-0.87 0,0 -0.55,-1.42 -0.32,-2.13 0.24,-0.71 1.89,-2.37 3.31,-2.6 -1.1,-1.81 -17.51,-33.67 -17.51,-33.67 l -4.73,-9.15 -2.68,-1.73 -62.37,21.05 c 0,0 -2.29,0.71 -3.55,0.71 -1.26,0 -4.49,-0.55 -4.49,-0.55 l -0.47,-0.87 67.1,-25.47 c 0,0 -0.63,-1.26 0,-2.68 0.63,-1.42 4.57,-3.15 4.57,-3.15 0,0 0.08,-3.39 2.76,-3.78 2.68,-0.39 4.97,1.18 5.99,3.23 0.79,0.55 1.89,1.5 1.89,1.5 l 36.43,-10.49 5.2,-0.47 0.47,0.63 -2.05,0.79 -0.32,0.79 -36.59,14.04 15.85,23.66 c 0,0 5.13,7.57 6.86,9.15 1.73,1.58 5.6,4.89 7.25,5.52 1.66,0.63 3.71,1.66 3.71,2.37 0,0.71 0.39,3 0.16,3 -0.23,0 -0.71,0.55 -0.71,0.55 0,0 5.84,-0.32 9.15,-0.63 0.08,-1.34 5.52,-9.62 18.69,-12.93 13.17,-3.31 19.08,-0.79 21.13,-0.08 2.05,0.71 8.28,4.1 8.2,12.38 -0.08,2.21 -1.03,4.42 -1.03,4.42 l 46.76,5.05 18.06,-11.04 28.62,-20.74 27.99,-22.08 -0.95,-0.95 c 0,0 -0.16,-0.79 0.24,-1.73 0.39,-0.95 1.89,-1.58 0.55,-4.57 -1.34,-3 -6.07,-15.14 -6.07,-15.14 z"
   id="path4"
   inkscape:connector-curvature="0"
   style="fill:#999999" />
	<path
   class="st1"
   d="m 780.49,509.37 c 4,1 13,5 19,9 6,4 11.96,9.04 16.44,13.39 4.48,4.35 21.2,20.28 21.73,39.38 -0.29,0.93 -1.95,2.33 -4.64,3.74 -1.47,-1.53 -2.44,-3.86 -0.74,-7.16 -4.4,-5.17 -43.09,-46.72 -68.55,-54.77 -25.47,-8.04 -141.7,-16.85 -141.7,-16.85 l 6.76,-1.93 c 0,0.22 -0.02,0.36 -0.07,0.36 -0.24,0 -0.71,0.55 -0.71,0.55 0,0 5.84,-0.32 9.15,-0.63 0,0 8.62,-0.27 12.64,0.31 4.02,0.57 34.35,3.48 34.35,3.48 l 46.76,5.05 34.59,4.09 c -0.01,-0.01 10.99,0.99 14.99,1.99 z"
   id="path6"
   inkscape:connector-curvature="0"
   style="fill:#cccccc" />
	<path
   class="st2"
   d="m 787.87,544.01 c -16.68,3.59 -38.16,3.13 -38.16,3.13 0,0 1.75,-12.63 2.67,-14.47 5.71,0.55 21.29,-1.75 29.95,-3.96 8.66,-2.21 13.92,-5.99 15.39,-8.02 0.68,-0.94 0.45,-2.27 0.01,-3.44 0.6,0.37 1.19,0.74 1.75,1.11 4.58,3.05 9.12,6.7 13.01,10.2 0.1,1.31 0.14,2.9 -0.22,3.56 -2.56,3.41 -7.72,8.3 -24.4,11.89 z"
   id="path8"
   inkscape:connector-curvature="0"
   style="fill:#666666" />
	<path
   class="st3"
   d="m 811.02,529.54 -11.12,-7.77 c 0,0 -1.14,-0.13 -1.47,0 -0.33,0.13 -6.57,5.29 -6.57,5.29 l 10.18,10.12 c 0,0 1.07,0.2 1.27,0.33 0.2,0.13 5.49,-3.35 7.71,-7.97 z"
   id="path10"
   inkscape:connector-curvature="0"
   style="fill:#333333" />
	<path
   class="st3"
   d="m 799.63,537.51 -9.65,-9.05 c 0,0 -0.4,-0.67 -2.68,0 -2.28,0.67 -5.9,1.81 -7.84,2.28 -1.94,0.47 -6.57,1.47 -6.57,1.47 0,0 -1.81,0.41 -1.21,2.48 0.6,2.08 2.61,7.77 2.61,7.77 0,0 -0.07,2.35 3.28,1.88 3.35,-0.47 13.47,-2.88 16.35,-3.48 2.88,-0.6 5.7,-1.41 5.7,-1.41 0,0 0.87,-1.13 0.01,-1.94 z"
   id="path12"
   inkscape:connector-curvature="0"
   style="fill:#333333" />
	<path
   class="st3"
   d="m 769.81,534.76 2.95,8.11 c 0,0 0.8,1.94 -2.01,2.14 -2.81,0.2 -18.22,0 -18.22,0 0,0 -1.67,0.07 -1.47,-1.01 0.2,-1.08 1.54,-8.17 1.54,-8.17 0,0 -0.07,-1.01 1.47,-1.07 1.54,-0.07 4.98,-0.27 7.88,-0.6 2.9,-0.34 4.98,-1.01 6.19,-0.8 1.2,0.2 1.67,1.4 1.67,1.4 z"
   id="path14"
   inkscape:connector-curvature="0"
   style="fill:#333333" />
	<path
   class="st4"
   d="M 693.77,491.76"
   id="path16"
   inkscape:connector-curvature="0"
   style="fill:none;stroke:#ff931e;stroke-width:0.5;stroke-linecap:round;stroke-linejoin:round;stroke-miterlimit:10" />
	<path
   class="st3"
   d="m 665.16,496.38 c -0.14,-0.73 -0.22,-1.48 -0.22,-2.26 0,-5.87 4.1,-10.63 9.15,-10.63 5.05,0 9.15,4.76 9.15,10.63 0,1.4 -0.25,2.74 -0.67,3.96 -3.11,-0.3 -10.42,-1.01 -17.41,-1.7 z"
   id="path18"
   inkscape:connector-curvature="0"
   style="fill:#333333" />
	<ellipse
   class="st3"
   cx="606.12"
   cy="520.42999"
   rx="9.9799995"
   ry="10.4"
   id="ellipse20"
   style="fill:#333333" />
	<path
   class="st2"
   d="m 605.11,528.87 c 4.56,0 8.26,-3.85 8.26,-8.6 0,-3.67 -2.21,-6.8 -5.32,-8.03 3.81,0.76 6.69,4.25 6.69,8.44 0,4.75 -3.7,8.6 -8.26,8.6 -1.04,0 -2.02,-0.21 -2.94,-0.57 0.51,0.11 1.03,0.16 1.57,0.16 z"
   id="path22"
   inkscape:connector-curvature="0"
   style="fill:#666666" />
	<g
   id="g54">
		<g
   id="g26">
			<path
   class="st3"
   d="m 722.73,536.77 v 8.1 c 0,0.67 -0.62,1.16 -1.27,1.02 l -1.32,-0.3 c -0.48,-0.11 -0.81,-0.53 -0.81,-1.02 v -8.07 c 0,-0.66 0.6,-1.15 1.25,-1.02 l 1.32,0.27 c 0.48,0.1 0.83,0.53 0.83,1.02 z"
   id="path24"
   inkscape:connector-curvature="0"
   style="fill:#333333" />
		</g>
		<path
   class="st3"
   d="m 714.25,535.06 v 8.01 c 0,0.65 -0.6,1.14 -1.24,0.99 l -1.26,-0.29 c -0.46,-0.1 -0.79,-0.52 -0.79,-0.99 v -7.98 c 0,-0.64 0.59,-1.12 1.22,-1 l 1.26,0.26 c 0.47,0.1 0.81,0.52 0.81,1 z"
   id="path28"
   inkscape:connector-curvature="0"
   style="fill:#333333" />
		<path
   class="st3"
   d="m 705.88,533.2 v 7.92 c 0,0.64 -0.59,1.11 -1.21,0.97 l -1.21,-0.27 c -0.45,-0.1 -0.77,-0.5 -0.77,-0.97 v -7.89 c 0,-0.63 0.57,-1.1 1.19,-0.97 l 1.21,0.24 c 0.46,0.09 0.79,0.5 0.79,0.97 z"
   id="path30"
   inkscape:connector-curvature="0"
   style="fill:#333333" />
		<path
   class="st3"
   d="m 697.98,531.64 v 7.83 c 0,0.62 -0.58,1.08 -1.18,0.94 l -1.15,-0.26 c -0.44,-0.1 -0.75,-0.49 -0.75,-0.94 v -7.8 c 0,-0.61 0.56,-1.07 1.16,-0.95 l 1.15,0.23 c 0.44,0.09 0.77,0.49 0.77,0.95 z"
   id="path32"
   inkscape:connector-curvature="0"
   style="fill:#333333" />
		<path
   class="st3"
   d="m 690.37,530.14 v 7.74 c 0,0.6 -0.56,1.05 -1.15,0.92 l -1.09,-0.25 c -0.43,-0.1 -0.73,-0.48 -0.73,-0.92 v -7.71 c 0,-0.59 0.54,-1.04 1.13,-0.92 l 1.09,0.22 c 0.44,0.09 0.75,0.48 0.75,0.92 z"
   id="path34"
   inkscape:connector-curvature="0"
   style="fill:#333333" />
		<path
   class="st3"
   d="m 683.48,528.63 v 7.65 c 0,0.59 -0.55,1.02 -1.12,0.89 l -1.03,-0.24 c -0.41,-0.1 -0.71,-0.46 -0.71,-0.89 v -7.62 c 0,-0.58 0.53,-1.01 1.1,-0.9 l 1.03,0.21 c 0.42,0.09 0.73,0.47 0.73,0.9 z"
   id="path36"
   inkscape:connector-curvature="0"
   style="fill:#333333" />
		<path
   class="st3"
   d="m 676.29,527.18 v 7.55 c 0,0.57 -0.53,0.99 -1.09,0.87 l -0.97,-0.22 c -0.4,-0.09 -0.69,-0.45 -0.69,-0.87 v -7.53 c 0,-0.56 0.51,-0.98 1.06,-0.87 l 0.97,0.2 c 0.43,0.09 0.72,0.45 0.72,0.87 z"
   id="path38"
   inkscape:connector-curvature="0"
   style="fill:#333333" />
		<path
   class="st3"
   d="m 670.03,525.87 v 7.46 c 0,0.55 -0.52,0.97 -1.06,0.84 l -0.92,-0.21 c -0.39,-0.09 -0.67,-0.44 -0.67,-0.84 v -7.44 c 0,-0.54 0.5,-0.95 1.03,-0.85 l 0.92,0.19 c 0.41,0.08 0.7,0.44 0.7,0.85 z"
   id="path40"
   inkscape:connector-curvature="0"
   style="fill:#333333" />
		<path
   class="st3"
   d="m 663.12,524.43 v 7.37 c 0,0.54 -0.5,0.94 -1.03,0.81 l -0.86,-0.2 c -0.38,-0.09 -0.65,-0.43 -0.65,-0.81 v -7.35 c 0,-0.53 0.48,-0.92 1,-0.82 l 0.86,0.17 c 0.4,0.09 0.68,0.44 0.68,0.83 z"
   id="path42"
   inkscape:connector-curvature="0"
   style="fill:#333333" />
		<path
   class="st3"
   d="m 656.86,523.15 v 7.28 c 0,0.52 -0.49,0.91 -1,0.79 l -0.8,-0.19 c -0.37,-0.09 -0.63,-0.41 -0.63,-0.79 v -7.26 c 0,-0.51 0.47,-0.9 0.97,-0.79 l 0.8,0.16 c 0.39,0.08 0.66,0.41 0.66,0.8 z"
   id="path44"
   inkscape:connector-curvature="0"
   style="fill:#333333" />
		<path
   class="st3"
   d="m 651.34,521.98 v 7.19 c 0,0.51 -0.47,0.88 -0.97,0.76 l -0.74,-0.17 c -0.35,-0.08 -0.61,-0.4 -0.61,-0.76 v -7.17 c 0,-0.5 0.45,-0.87 0.94,-0.77 l 0.74,0.15 c 0.37,0.07 0.64,0.39 0.64,0.77 z"
   id="path46"
   inkscape:connector-curvature="0"
   style="fill:#333333" />
		<path
   class="st3"
   d="m 645.75,520.86 v 7.1 c 0,0.49 -0.46,0.85 -0.93,0.74 l -0.69,-0.16 c -0.34,-0.08 -0.58,-0.39 -0.58,-0.74 v -7.08 c 0,-0.48 0.44,-0.84 0.91,-0.74 l 0.69,0.14 c 0.34,0.06 0.6,0.37 0.6,0.74 z"
   id="path48"
   inkscape:connector-curvature="0"
   style="fill:#333333" />
		<g
   id="g52">
			<path
   class="st3"
   d="m 640.76,519.79 v 7.01 c 0,0.47 -0.44,0.82 -0.9,0.71 l -0.63,-0.15 c -0.33,-0.08 -0.56,-0.37 -0.56,-0.71 v -6.98 c 0,-0.46 0.42,-0.81 0.88,-0.72 l 0.63,0.13 c 0.34,0.06 0.58,0.36 0.58,0.71 z"
   id="path50"
   inkscape:connector-curvature="0"
   style="fill:#333333" />
		</g>
	</g>
	<path
   class="st2"
   d="m 818.49,447.88 c -0.48,-0.38 -1.35,-0.71 -2.96,-0.73 -3.63,-0.03 -8.91,0.97 -10.75,1.47 l -0.16,-0.16 c 0,0 -0.16,-0.79 0.24,-1.73 0.39,-0.95 1.89,-1.58 0.55,-4.57 -1.34,-2.99 -6.07,-15.14 -6.07,-15.14 l 2.15,-0.65 17,21 z"
   id="path56"
   inkscape:connector-curvature="0"
   style="fill:#666666" />
	<path
   class="st2"
   d="m 399.77,577.33 -0.66,-2.11 14.22,20.81 c 0,0 3.95,1.45 5.14,2.77 l -2.29,-0.08 c 0,0 -1.44,2.19 -1.38,3.97 0.03,0.78 0.26,1.33 0.53,1.71 -0.07,-0.02 -0.13,-0.04 -0.15,-0.07 -0.4,-0.4 -1.19,-2.11 -1.19,-2.11 z"
   id="path58"
   inkscape:connector-curvature="0"
   style="fill:#666666" />
	<path
   class="st2"
   d="m 579.41,579.17 -91.91,14.53 9.39,-2.24 76.98,-13.12 100.44,-19.05 c 0,0 6.89,-1.44 10.53,-2.68 3.64,-1.24 2.11,-3.16 2.11,-3.16 0,0 -0.96,-0.57 0,-2.68 0.96,-2.11 3.43,-2.01 3.43,-2.01 0,0 6.43,2.87 15.51,7.09 9.08,4.21 16.55,5.95 16.55,5.95 0,0 -13.43,4.08 -20.15,3.82 -6.72,-0.26 -18.96,-0.4 -18.96,-0.4 z"
   id="path60"
   inkscape:connector-curvature="0"
   style="fill:#666666" />
	<polygon
   class="st2"
   points="818.49,447.91 818.49,449.37 765.49,507.37 753.58,505.96 759.92,501.1 815.35,447.96 817.03,447.29 "
   id="polygon62"
   style="fill:#666666" />
	<path
   class="st2"
   d="m 628.79,529.65 -4.34,-16.96 -7.53,1.98 c 0,0 0.96,2.52 1.09,4.26 0.13,1.74 -0.41,4.45 -0.41,4.45 l 2.45,1.61 3.8,2.22 3.59,1.83 z"
   id="path64"
   inkscape:connector-curvature="0"
   style="fill:#666666" />
</g>
</svg>