<?xml version="1.0" encoding="utf-8"?>
<!-- Generator: Adobe Illustrator 23.0.0, SVG Export Plug-In . SVG Version: 6.00 Build 0)  -->
<svg version="1.1" id="Layer_1" xmlns="http://www.w3.org/2000/svg" xmlns:xlink="http://www.w3.org/1999/xlink" x="0px" y="0px"
	 viewBox="0 0 100 100" style="enable-background:new 0 0 100 100;" xml:space="preserve">
<style type="text/css">
	.st0{fill:#2C4762;}
	.st1{fill:#FFFFFF;}
</style>
<g>
	<path class="st0" d="M65,59.9c0,2.8-2.3,5.1-5.1,5.1H40.1c-2.8,0-5.1-2.3-5.1-5.1V40.1c0-2.8,2.3-5.1,5.1-5.1h19.7
		c2.8,0,5.1,2.3,5.1,5.1V59.9z"/>
	<g>
		<path class="st1" d="M51.1,44.2v-4.5h-2.9c-0.1,0.2-0.1,0.4-0.1,0.6c0,0.1-0.1,0.2-0.1,0.3c-0.3,1.7-1.2,2.8-2.6,3.5
			c-0.4,0.2-0.8,0.2-1.3,0.2v3.6h2.1c0,5.1,0,7.7,0,7.9v0.3c0.3,2.2,1.4,3.6,3.5,4.1c0.8,0.2,1.7,0.3,2.6,0.3c1.2,0,2.3-0.2,3.4-0.6
			v-4.3c-0.7,0.2-1.3,0.4-1.8,0.5c-1,0.3-1.9,0.1-2.6-0.6c-0.1-0.1-0.2-0.2-0.2-0.4c-0.1-0.5-0.2-1.1-0.2-1.6v-5.7h4.6v-3.6H51.1z
			 M51.1,44.2"/>
	</g>
</g>
</svg>
